<svg version="1.1" xmlns="http://www.w3.org/2000/svg" xmlns:xlink="http://www.w3.org/1999/xlink" x="0px" y="0px"
	 viewBox="0 0 512 512" style="enable-background:new 0 0 512 512;" xml:space="preserve">
<g>
		<path d="M208,0h-16c-4.418,0-8,3.582-8,8v496c0,4.418,3.582,8,8,8h64c4.418,0,8-3.582,8-8V352c-0.029-8.684-2.914-17.117-8.208-24
			H320c4.418,0,8-3.582,8-8V120C327.925,53.757,274.243,0.075,208,0z M248,496h-48V376h48V496z M248,360h-48v-32h24
			c13.255,0,24,10.745,24,24V360z M312,312H200V16h8c57.41,0.066,103.934,46.59,104,104V312z"/>
</g>
</svg>
